<svg xmlns="http://www.w3.org/2000/svg" version="1.1" width="500" height="500">
<rect x="0" y="0" width="500" height="500" style="stroke:#000;fill:none" />
<line x1="247" y1="153" x2="153" y2="253" style="stroke:GoldenRod" />
<line x1="153" y1="253" x2="253" y2="347" style="stroke:GoldenRod" />
<line x1="253" y1="347" x2="347" y2="247" style="stroke:GoldenRod" />
<line x1="347" y1="247" x2="247" y2="153" style="stroke:GoldenRod" />
<line x1="247" y1="156" x2="156" y2="253" style="stroke:GoldenRod" />
<line x1="156" y1="253" x2="253" y2="344" style="stroke:GoldenRod" />
<line x1="253" y1="344" x2="344" y2="247" style="stroke:GoldenRod" />
<line x1="344" y1="247" x2="247" y2="156" style="stroke:GoldenRod" />
<line x1="247" y1="159" x2="159" y2="253" style="stroke:GoldenRod" />
<line x1="159" y1="253" x2="253" y2="341" style="stroke:GoldenRod" />
<line x1="253" y1="341" x2="341" y2="247" style="stroke:GoldenRod" />
<line x1="341" y1="247" x2="247" y2="159" style="stroke:GoldenRod" />
<line x1="248" y1="161" x2="161" y2="252" style="stroke:GoldenRod" />
<line x1="161" y1="252" x2="252" y2="339" style="stroke:GoldenRod" />
<line x1="252" y1="339" x2="339" y2="248" style="stroke:GoldenRod" />
<line x1="339" y1="248" x2="248" y2="161" style="stroke:GoldenRod" />
<line x1="247" y1="163" x2="163" y2="253" style="stroke:GoldenRod" />
<line x1="163" y1="253" x2="253" y2="337" style="stroke:GoldenRod" />
<line x1="253" y1="337" x2="337" y2="247" style="stroke:GoldenRod" />
<line x1="337" y1="247" x2="247" y2="163" style="stroke:GoldenRod" />
<line x1="247" y1="103" x2="153" y2="203" style="stroke:GoldenRod" />
<line x1="153" y1="203" x2="253" y2="297" style="stroke:GoldenRod" />
<line x1="253" y1="297" x2="347" y2="197" style="stroke:GoldenRod" />
<line x1="347" y1="197" x2="247" y2="103" style="stroke:GoldenRod" />
<line x1="247" y1="106" x2="156" y2="203" style="stroke:GoldenRod" />
<line x1="156" y1="203" x2="253" y2="294" style="stroke:GoldenRod" />
<line x1="253" y1="294" x2="344" y2="197" style="stroke:GoldenRod" />
<line x1="344" y1="197" x2="247" y2="106" style="stroke:GoldenRod" />
<line x1="247" y1="109" x2="159" y2="203" style="stroke:GoldenRod" />
<line x1="159" y1="203" x2="253" y2="291" style="stroke:GoldenRod" />
<line x1="253" y1="291" x2="341" y2="197" style="stroke:GoldenRod" />
<line x1="341" y1="197" x2="247" y2="109" style="stroke:GoldenRod" />
<line x1="248" y1="111" x2="161" y2="202" style="stroke:GoldenRod" />
<line x1="161" y1="202" x2="252" y2="289" style="stroke:GoldenRod" />
<line x1="252" y1="289" x2="339" y2="198" style="stroke:GoldenRod" />
<line x1="339" y1="198" x2="248" y2="111" style="stroke:GoldenRod" />
<line x1="247" y1="113" x2="163" y2="203" style="stroke:GoldenRod" />
<line x1="163" y1="203" x2="253" y2="287" style="stroke:GoldenRod" />
<line x1="253" y1="287" x2="337" y2="197" style="stroke:GoldenRod" />
<line x1="337" y1="197" x2="247" y2="113" style="stroke:GoldenRod" />
<line x1="124" y1="326" x2="258" y2="358" style="stroke:GoldenRod" />
<line x1="258" y1="358" x2="289" y2="224" style="stroke:GoldenRod" />
<line x1="289" y1="224" x2="156" y2="192" style="stroke:GoldenRod" />
<line x1="156" y1="192" x2="124" y2="326" style="stroke:GoldenRod" />
<line x1="127" y1="325" x2="256" y2="355" style="stroke:GoldenRod" />
<line x1="256" y1="355" x2="287" y2="225" style="stroke:GoldenRod" />
<line x1="287" y1="225" x2="157" y2="195" style="stroke:GoldenRod" />
<line x1="157" y1="195" x2="127" y2="325" style="stroke:GoldenRod" />
<line x1="129" y1="323" x2="255" y2="352" style="stroke:GoldenRod" />
<line x1="255" y1="352" x2="284" y2="227" style="stroke:GoldenRod" />
<line x1="284" y1="227" x2="159" y2="198" style="stroke:GoldenRod" />
<line x1="159" y1="198" x2="129" y2="323" style="stroke:GoldenRod" />
<line x1="131" y1="321" x2="253" y2="351" style="stroke:GoldenRod" />
<line x1="253" y1="351" x2="283" y2="229" style="stroke:GoldenRod" />
<line x1="283" y1="229" x2="160" y2="199" style="stroke:GoldenRod" />
<line x1="160" y1="199" x2="131" y2="321" style="stroke:GoldenRod" />
<line x1="133" y1="321" x2="253" y2="349" style="stroke:GoldenRod" />
<line x1="253" y1="349" x2="281" y2="229" style="stroke:GoldenRod" />
<line x1="281" y1="229" x2="161" y2="201" style="stroke:GoldenRod" />
<line x1="161" y1="201" x2="133" y2="321" style="stroke:GoldenRod" />
<line x1="379" y1="321" x2="339" y2="189" style="stroke:GoldenRod" />
<line x1="339" y1="189" x2="208" y2="229" style="stroke:GoldenRod" />
<line x1="208" y1="229" x2="247" y2="361" style="stroke:GoldenRod" />
<line x1="247" y1="361" x2="379" y2="321" style="stroke:GoldenRod" />
<line x1="376" y1="319" x2="338" y2="192" style="stroke:GoldenRod" />
<line x1="338" y1="192" x2="210" y2="231" style="stroke:GoldenRod" />
<line x1="210" y1="231" x2="249" y2="358" style="stroke:GoldenRod" />
<line x1="249" y1="358" x2="376" y2="319" style="stroke:GoldenRod" />
<line x1="374" y1="318" x2="336" y2="195" style="stroke:GoldenRod" />
<line x1="336" y1="195" x2="213" y2="232" style="stroke:GoldenRod" />
<line x1="213" y1="232" x2="250" y2="355" style="stroke:GoldenRod" />
<line x1="250" y1="355" x2="374" y2="318" style="stroke:GoldenRod" />
<line x1="371" y1="318" x2="336" y2="197" style="stroke:GoldenRod" />
<line x1="336" y1="197" x2="215" y2="232" style="stroke:GoldenRod" />
<line x1="215" y1="232" x2="251" y2="353" style="stroke:GoldenRod" />
<line x1="251" y1="353" x2="371" y2="318" style="stroke:GoldenRod" />
<line x1="370" y1="316" x2="334" y2="198" style="stroke:GoldenRod" />
<line x1="334" y1="198" x2="216" y2="234" style="stroke:GoldenRod" />
<line x1="216" y1="234" x2="252" y2="352" style="stroke:GoldenRod" />
<line x1="252" y1="352" x2="370" y2="316" style="stroke:GoldenRod" />
<line x1="247" y1="53" x2="153" y2="153" style="stroke:GoldenRod" />
<line x1="153" y1="153" x2="253" y2="247" style="stroke:GoldenRod" />
<line x1="253" y1="247" x2="347" y2="147" style="stroke:GoldenRod" />
<line x1="347" y1="147" x2="247" y2="53" style="stroke:GoldenRod" />
<line x1="247" y1="56" x2="156" y2="153" style="stroke:GoldenRod" />
<line x1="156" y1="153" x2="253" y2="244" style="stroke:GoldenRod" />
<line x1="253" y1="244" x2="344" y2="147" style="stroke:GoldenRod" />
<line x1="344" y1="147" x2="247" y2="56" style="stroke:GoldenRod" />
<line x1="247" y1="59" x2="159" y2="153" style="stroke:GoldenRod" />
<line x1="159" y1="153" x2="253" y2="241" style="stroke:GoldenRod" />
<line x1="253" y1="241" x2="341" y2="147" style="stroke:GoldenRod" />
<line x1="341" y1="147" x2="247" y2="59" style="stroke:GoldenRod" />
<line x1="248" y1="61" x2="161" y2="152" style="stroke:GoldenRod" />
<line x1="161" y1="152" x2="252" y2="239" style="stroke:GoldenRod" />
<line x1="252" y1="239" x2="339" y2="148" style="stroke:GoldenRod" />
<line x1="339" y1="148" x2="248" y2="61" style="stroke:GoldenRod" />
<line x1="247" y1="63" x2="163" y2="153" style="stroke:GoldenRod" />
<line x1="163" y1="153" x2="253" y2="237" style="stroke:GoldenRod" />
<line x1="253" y1="237" x2="337" y2="147" style="stroke:GoldenRod" />
<line x1="337" y1="147" x2="247" y2="63" style="stroke:GoldenRod" />
<line x1="121" y1="101" x2="113" y2="238" style="stroke:GoldenRod" />
<line x1="113" y1="238" x2="250" y2="246" style="stroke:GoldenRod" />
<line x1="250" y1="246" x2="258" y2="109" style="stroke:GoldenRod" />
<line x1="258" y1="109" x2="121" y2="101" style="stroke:GoldenRod" />
<line x1="123" y1="103" x2="116" y2="236" style="stroke:GoldenRod" />
<line x1="116" y1="236" x2="248" y2="243" style="stroke:GoldenRod" />
<line x1="248" y1="243" x2="256" y2="111" style="stroke:GoldenRod" />
<line x1="256" y1="111" x2="123" y2="103" style="stroke:GoldenRod" />
<line x1="125" y1="106" x2="118" y2="234" style="stroke:GoldenRod" />
<line x1="118" y1="234" x2="247" y2="241" style="stroke:GoldenRod" />
<line x1="247" y1="241" x2="254" y2="113" style="stroke:GoldenRod" />
<line x1="254" y1="113" x2="125" y2="106" style="stroke:GoldenRod" />
<line x1="127" y1="107" x2="119" y2="232" style="stroke:GoldenRod" />
<line x1="119" y1="232" x2="244" y2="240" style="stroke:GoldenRod" />
<line x1="244" y1="240" x2="253" y2="115" style="stroke:GoldenRod" />
<line x1="253" y1="115" x2="127" y2="107" style="stroke:GoldenRod" />
<line x1="128" y1="109" x2="121" y2="232" style="stroke:GoldenRod" />
<line x1="121" y1="232" x2="244" y2="238" style="stroke:GoldenRod" />
<line x1="244" y1="238" x2="250" y2="115" style="stroke:GoldenRod" />
<line x1="250" y1="115" x2="128" y2="109" style="stroke:GoldenRod" />
<line x1="55" y1="219" x2="138" y2="329" style="stroke:GoldenRod" />
<line x1="138" y1="329" x2="248" y2="247" style="stroke:GoldenRod" />
<line x1="248" y1="247" x2="165" y2="137" style="stroke:GoldenRod" />
<line x1="165" y1="137" x2="55" y2="219" style="stroke:GoldenRod" />
<line x1="58" y1="219" x2="138" y2="326" style="stroke:GoldenRod" />
<line x1="138" y1="326" x2="245" y2="246" style="stroke:GoldenRod" />
<line x1="245" y1="246" x2="165" y2="140" style="stroke:GoldenRod" />
<line x1="165" y1="140" x2="58" y2="219" style="stroke:GoldenRod" />
<line x1="61" y1="220" x2="139" y2="323" style="stroke:GoldenRod" />
<line x1="139" y1="323" x2="242" y2="245" style="stroke:GoldenRod" />
<line x1="242" y1="245" x2="164" y2="142" style="stroke:GoldenRod" />
<line x1="164" y1="142" x2="61" y2="220" style="stroke:GoldenRod" />
<line x1="64" y1="219" x2="138" y2="321" style="stroke:GoldenRod" />
<line x1="138" y1="321" x2="240" y2="246" style="stroke:GoldenRod" />
<line x1="240" y1="246" x2="165" y2="145" style="stroke:GoldenRod" />
<line x1="165" y1="145" x2="64" y2="219" style="stroke:GoldenRod" />
<line x1="65" y1="220" x2="139" y2="319" style="stroke:GoldenRod" />
<line x1="139" y1="319" x2="238" y2="245" style="stroke:GoldenRod" />
<line x1="238" y1="245" x2="164" y2="146" style="stroke:GoldenRod" />
<line x1="164" y1="146" x2="65" y2="220" style="stroke:GoldenRod" />
<line x1="81" y1="351" x2="214" y2="383" style="stroke:GoldenRod" />
<line x1="214" y1="383" x2="246" y2="249" style="stroke:GoldenRod" />
<line x1="246" y1="249" x2="112" y2="217" style="stroke:GoldenRod" />
<line x1="112" y1="217" x2="81" y2="351" style="stroke:GoldenRod" />
<line x1="83" y1="350" x2="213" y2="380" style="stroke:GoldenRod" />
<line x1="213" y1="380" x2="243" y2="250" style="stroke:GoldenRod" />
<line x1="243" y1="250" x2="114" y2="220" style="stroke:GoldenRod" />
<line x1="114" y1="220" x2="83" y2="350" style="stroke:GoldenRod" />
<line x1="86" y1="348" x2="211" y2="377" style="stroke:GoldenRod" />
<line x1="211" y1="377" x2="241" y2="252" style="stroke:GoldenRod" />
<line x1="241" y1="252" x2="115" y2="223" style="stroke:GoldenRod" />
<line x1="115" y1="223" x2="86" y2="348" style="stroke:GoldenRod" />
<line x1="87" y1="346" x2="210" y2="376" style="stroke:GoldenRod" />
<line x1="210" y1="376" x2="239" y2="254" style="stroke:GoldenRod" />
<line x1="239" y1="254" x2="117" y2="224" style="stroke:GoldenRod" />
<line x1="117" y1="224" x2="87" y2="346" style="stroke:GoldenRod" />
<line x1="90" y1="346" x2="209" y2="374" style="stroke:GoldenRod" />
<line x1="209" y1="374" x2="237" y2="254" style="stroke:GoldenRod" />
<line x1="237" y1="254" x2="117" y2="226" style="stroke:GoldenRod" />
<line x1="117" y1="226" x2="90" y2="346" style="stroke:GoldenRod" />
<line x1="185" y1="436" x2="308" y2="374" style="stroke:GoldenRod" />
<line x1="308" y1="374" x2="246" y2="252" style="stroke:GoldenRod" />
<line x1="246" y1="252" x2="124" y2="314" style="stroke:GoldenRod" />
<line x1="124" y1="314" x2="185" y2="436" style="stroke:GoldenRod" />
<line x1="186" y1="433" x2="305" y2="373" style="stroke:GoldenRod" />
<line x1="305" y1="373" x2="245" y2="255" style="stroke:GoldenRod" />
<line x1="245" y1="255" x2="126" y2="315" style="stroke:GoldenRod" />
<line x1="126" y1="315" x2="186" y2="433" style="stroke:GoldenRod" />
<line x1="187" y1="431" x2="302" y2="372" style="stroke:GoldenRod" />
<line x1="302" y1="372" x2="244" y2="257" style="stroke:GoldenRod" />
<line x1="244" y1="257" x2="129" y2="316" style="stroke:GoldenRod" />
<line x1="129" y1="316" x2="187" y2="431" style="stroke:GoldenRod" />
<line x1="187" y1="428" x2="300" y2="373" style="stroke:GoldenRod" />
<line x1="300" y1="373" x2="244" y2="260" style="stroke:GoldenRod" />
<line x1="244" y1="260" x2="131" y2="315" style="stroke:GoldenRod" />
<line x1="131" y1="315" x2="187" y2="428" style="stroke:GoldenRod" />
<line x1="189" y1="427" x2="299" y2="371" style="stroke:GoldenRod" />
<line x1="299" y1="371" x2="243" y2="261" style="stroke:GoldenRod" />
<line x1="243" y1="261" x2="133" y2="317" style="stroke:GoldenRod" />
<line x1="133" y1="317" x2="189" y2="427" style="stroke:GoldenRod" />
<line x1="320" y1="434" x2="374" y2="308" style="stroke:GoldenRod" />
<line x1="374" y1="308" x2="248" y2="254" style="stroke:GoldenRod" />
<line x1="248" y1="254" x2="194" y2="380" style="stroke:GoldenRod" />
<line x1="194" y1="380" x2="320" y2="434" style="stroke:GoldenRod" />
<line x1="319" y1="431" x2="372" y2="309" style="stroke:GoldenRod" />
<line x1="372" y1="309" x2="249" y2="257" style="stroke:GoldenRod" />
<line x1="249" y1="257" x2="197" y2="379" style="stroke:GoldenRod" />
<line x1="197" y1="379" x2="319" y2="431" style="stroke:GoldenRod" />
<line x1="318" y1="428" x2="369" y2="310" style="stroke:GoldenRod" />
<line x1="369" y1="310" x2="250" y2="259" style="stroke:GoldenRod" />
<line x1="250" y1="259" x2="200" y2="378" style="stroke:GoldenRod" />
<line x1="200" y1="378" x2="318" y2="428" style="stroke:GoldenRod" />
<line x1="317" y1="427" x2="367" y2="312" style="stroke:GoldenRod" />
<line x1="367" y1="312" x2="252" y2="261" style="stroke:GoldenRod" />
<line x1="252" y1="261" x2="201" y2="376" style="stroke:GoldenRod" />
<line x1="201" y1="376" x2="317" y2="427" style="stroke:GoldenRod" />
<line x1="317" y1="425" x2="365" y2="311" style="stroke:GoldenRod" />
<line x1="365" y1="311" x2="252" y2="263" style="stroke:GoldenRod" />
<line x1="252" y1="263" x2="203" y2="377" style="stroke:GoldenRod" />
<line x1="203" y1="377" x2="317" y2="425" style="stroke:GoldenRod" />
<line x1="422" y1="346" x2="383" y2="214" style="stroke:GoldenRod" />
<line x1="383" y1="214" x2="251" y2="254" style="stroke:GoldenRod" />
<line x1="251" y1="254" x2="291" y2="386" style="stroke:GoldenRod" />
<line x1="291" y1="386" x2="422" y2="346" style="stroke:GoldenRod" />
<line x1="420" y1="344" x2="381" y2="217" style="stroke:GoldenRod" />
<line x1="381" y1="217" x2="254" y2="256" style="stroke:GoldenRod" />
<line x1="254" y1="256" x2="292" y2="383" style="stroke:GoldenRod" />
<line x1="292" y1="383" x2="420" y2="344" style="stroke:GoldenRod" />
<line x1="417" y1="343" x2="380" y2="220" style="stroke:GoldenRod" />
<line x1="380" y1="220" x2="256" y2="257" style="stroke:GoldenRod" />
<line x1="256" y1="257" x2="294" y2="380" style="stroke:GoldenRod" />
<line x1="294" y1="380" x2="417" y2="343" style="stroke:GoldenRod" />
<line x1="415" y1="343" x2="379" y2="222" style="stroke:GoldenRod" />
<line x1="379" y1="222" x2="259" y2="257" style="stroke:GoldenRod" />
<line x1="259" y1="257" x2="294" y2="378" style="stroke:GoldenRod" />
<line x1="294" y1="378" x2="415" y2="343" style="stroke:GoldenRod" />
<line x1="413" y1="341" x2="378" y2="223" style="stroke:GoldenRod" />
<line x1="378" y1="223" x2="260" y2="259" style="stroke:GoldenRod" />
<line x1="260" y1="259" x2="296" y2="377" style="stroke:GoldenRod" />
<line x1="296" y1="377" x2="413" y2="341" style="stroke:GoldenRod" />
<line x1="443" y1="213" x2="329" y2="138" style="stroke:GoldenRod" />
<line x1="329" y1="138" x2="253" y2="252" style="stroke:GoldenRod" />
<line x1="253" y1="252" x2="368" y2="328" style="stroke:GoldenRod" />
<line x1="368" y1="328" x2="443" y2="213" style="stroke:GoldenRod" />
<line x1="441" y1="213" x2="329" y2="141" style="stroke:GoldenRod" />
<line x1="329" y1="141" x2="256" y2="252" style="stroke:GoldenRod" />
<line x1="256" y1="252" x2="368" y2="325" style="stroke:GoldenRod" />
<line x1="368" y1="325" x2="441" y2="213" style="stroke:GoldenRod" />
<line x1="438" y1="214" x2="330" y2="144" style="stroke:GoldenRod" />
<line x1="330" y1="144" x2="259" y2="251" style="stroke:GoldenRod" />
<line x1="259" y1="251" x2="367" y2="322" style="stroke:GoldenRod" />
<line x1="367" y1="322" x2="438" y2="214" style="stroke:GoldenRod" />
<line x1="436" y1="215" x2="331" y2="145" style="stroke:GoldenRod" />
<line x1="331" y1="145" x2="261" y2="250" style="stroke:GoldenRod" />
<line x1="261" y1="250" x2="366" y2="320" style="stroke:GoldenRod" />
<line x1="366" y1="320" x2="436" y2="215" style="stroke:GoldenRod" />
<line x1="434" y1="215" x2="330" y2="147" style="stroke:GoldenRod" />
<line x1="330" y1="147" x2="263" y2="251" style="stroke:GoldenRod" />
<line x1="263" y1="251" x2="367" y2="318" style="stroke:GoldenRod" />
<line x1="367" y1="318" x2="434" y2="215" style="stroke:GoldenRod" />
<line x1="374" y1="97" x2="238" y2="113" style="stroke:GoldenRod" />
<line x1="238" y1="113" x2="254" y2="250" style="stroke:GoldenRod" />
<line x1="254" y1="250" x2="391" y2="233" style="stroke:GoldenRod" />
<line x1="391" y1="233" x2="374" y2="97" style="stroke:GoldenRod" />
<line x1="372" y1="99" x2="240" y2="115" style="stroke:GoldenRod" />
<line x1="240" y1="115" x2="256" y2="247" style="stroke:GoldenRod" />
<line x1="256" y1="247" x2="388" y2="232" style="stroke:GoldenRod" />
<line x1="388" y1="232" x2="372" y2="99" style="stroke:GoldenRod" />
<line x1="370" y1="102" x2="243" y2="117" style="stroke:GoldenRod" />
<line x1="243" y1="117" x2="258" y2="245" style="stroke:GoldenRod" />
<line x1="258" y1="245" x2="386" y2="230" style="stroke:GoldenRod" />
<line x1="386" y1="230" x2="370" y2="102" style="stroke:GoldenRod" />
<line x1="370" y1="104" x2="245" y2="118" style="stroke:GoldenRod" />
<line x1="245" y1="118" x2="259" y2="243" style="stroke:GoldenRod" />
<line x1="259" y1="243" x2="384" y2="229" style="stroke:GoldenRod" />
<line x1="384" y1="229" x2="370" y2="104" style="stroke:GoldenRod" />
<line x1="368" y1="105" x2="246" y2="120" style="stroke:GoldenRod" />
<line x1="246" y1="120" x2="261" y2="242" style="stroke:GoldenRod" />
<line x1="261" y1="242" x2="383" y2="227" style="stroke:GoldenRod" />
<line x1="383" y1="227" x2="368" y2="105" style="stroke:GoldenRod" />
<line x1="247" y1="3" x2="153" y2="103" style="stroke:GoldenRod" />
<line x1="153" y1="103" x2="253" y2="197" style="stroke:GoldenRod" />
<line x1="253" y1="197" x2="347" y2="97" style="stroke:GoldenRod" />
<line x1="347" y1="97" x2="247" y2="3" style="stroke:GoldenRod" />
<line x1="247" y1="6" x2="156" y2="103" style="stroke:GoldenRod" />
<line x1="156" y1="103" x2="253" y2="194" style="stroke:GoldenRod" />
<line x1="253" y1="194" x2="344" y2="97" style="stroke:GoldenRod" />
<line x1="344" y1="97" x2="247" y2="6" style="stroke:GoldenRod" />
<line x1="247" y1="9" x2="159" y2="103" style="stroke:GoldenRod" />
<line x1="159" y1="103" x2="253" y2="191" style="stroke:GoldenRod" />
<line x1="253" y1="191" x2="341" y2="97" style="stroke:GoldenRod" />
<line x1="341" y1="97" x2="247" y2="9" style="stroke:GoldenRod" />
<line x1="248" y1="11" x2="161" y2="102" style="stroke:GoldenRod" />
<line x1="161" y1="102" x2="252" y2="189" style="stroke:GoldenRod" />
<line x1="252" y1="189" x2="339" y2="98" style="stroke:GoldenRod" />
<line x1="339" y1="98" x2="248" y2="11" style="stroke:GoldenRod" />
<line x1="247" y1="13" x2="163" y2="103" style="stroke:GoldenRod" />
<line x1="163" y1="103" x2="253" y2="187" style="stroke:GoldenRod" />
<line x1="253" y1="187" x2="337" y2="97" style="stroke:GoldenRod" />
<line x1="337" y1="97" x2="247" y2="13" style="stroke:GoldenRod" />
<line x1="147" y1="26" x2="102" y2="155" style="stroke:GoldenRod" />
<line x1="102" y1="155" x2="231" y2="200" style="stroke:GoldenRod" />
<line x1="231" y1="200" x2="276" y2="71" style="stroke:GoldenRod" />
<line x1="276" y1="71" x2="147" y2="26" style="stroke:GoldenRod" />
<line x1="148" y1="28" x2="104" y2="154" style="stroke:GoldenRod" />
<line x1="104" y1="154" x2="230" y2="198" style="stroke:GoldenRod" />
<line x1="230" y1="198" x2="274" y2="72" style="stroke:GoldenRod" />
<line x1="274" y1="72" x2="148" y2="28" style="stroke:GoldenRod" />
<line x1="149" y1="31" x2="107" y2="153" style="stroke:GoldenRod" />
<line x1="107" y1="153" x2="229" y2="195" style="stroke:GoldenRod" />
<line x1="229" y1="195" x2="271" y2="73" style="stroke:GoldenRod" />
<line x1="271" y1="73" x2="149" y2="31" style="stroke:GoldenRod" />
<line x1="151" y1="32" x2="108" y2="151" style="stroke:GoldenRod" />
<line x1="108" y1="151" x2="227" y2="193" style="stroke:GoldenRod" />
<line x1="227" y1="193" x2="269" y2="75" style="stroke:GoldenRod" />
<line x1="269" y1="75" x2="151" y2="32" style="stroke:GoldenRod" />
<line x1="151" y1="35" x2="111" y2="151" style="stroke:GoldenRod" />
<line x1="111" y1="151" x2="227" y2="191" style="stroke:GoldenRod" />
<line x1="227" y1="191" x2="267" y2="75" style="stroke:GoldenRod" />
<line x1="267" y1="75" x2="151" y2="35" style="stroke:GoldenRod" />
<line x1="64" y1="87" x2="76" y2="224" style="stroke:GoldenRod" />
<line x1="76" y1="224" x2="213" y2="212" style="stroke:GoldenRod" />
<line x1="213" y1="212" x2="201" y2="76" style="stroke:GoldenRod" />
<line x1="201" y1="76" x2="64" y2="87" style="stroke:GoldenRod" />
<line x1="67" y1="89" x2="78" y2="221" style="stroke:GoldenRod" />
<line x1="78" y1="221" x2="210" y2="210" style="stroke:GoldenRod" />
<line x1="210" y1="210" x2="199" y2="78" style="stroke:GoldenRod" />
<line x1="199" y1="78" x2="67" y2="89" style="stroke:GoldenRod" />
<line x1="69" y1="91" x2="80" y2="219" style="stroke:GoldenRod" />
<line x1="80" y1="219" x2="208" y2="208" style="stroke:GoldenRod" />
<line x1="208" y1="208" x2="197" y2="80" style="stroke:GoldenRod" />
<line x1="197" y1="80" x2="69" y2="91" style="stroke:GoldenRod" />
<line x1="71" y1="92" x2="80" y2="217" style="stroke:GoldenRod" />
<line x1="80" y1="217" x2="206" y2="208" style="stroke:GoldenRod" />
<line x1="206" y1="208" x2="197" y2="82" style="stroke:GoldenRod" />
<line x1="197" y1="82" x2="71" y2="92" style="stroke:GoldenRod" />
<line x1="72" y1="94" x2="83" y2="216" style="stroke:GoldenRod" />
<line x1="83" y1="216" x2="205" y2="206" style="stroke:GoldenRod" />
<line x1="205" y1="206" x2="195" y2="83" style="stroke:GoldenRod" />
<line x1="195" y1="83" x2="72" y2="94" style="stroke:GoldenRod" />
<line x1="14" y1="177" x2="80" y2="297" style="stroke:GoldenRod" />
<line x1="80" y1="297" x2="201" y2="231" style="stroke:GoldenRod" />
<line x1="201" y1="231" x2="134" y2="110" style="stroke:GoldenRod" />
<line x1="134" y1="110" x2="14" y2="177" style="stroke:GoldenRod" />
<line x1="17" y1="177" x2="81" y2="294" style="stroke:GoldenRod" />
<line x1="81" y1="294" x2="198" y2="230" style="stroke:GoldenRod" />
<line x1="198" y1="230" x2="134" y2="113" style="stroke:GoldenRod" />
<line x1="134" y1="113" x2="17" y2="177" style="stroke:GoldenRod" />
<line x1="20" y1="178" x2="82" y2="291" style="stroke:GoldenRod" />
<line x1="82" y1="291" x2="195" y2="229" style="stroke:GoldenRod" />
<line x1="195" y1="229" x2="133" y2="116" style="stroke:GoldenRod" />
<line x1="133" y1="116" x2="20" y2="178" style="stroke:GoldenRod" />
<line x1="22" y1="178" x2="82" y2="289" style="stroke:GoldenRod" />
<line x1="82" y1="289" x2="193" y2="229" style="stroke:GoldenRod" />
<line x1="193" y1="229" x2="133" y2="118" style="stroke:GoldenRod" />
<line x1="133" y1="118" x2="22" y2="178" style="stroke:GoldenRod" />
<line x1="24" y1="180" x2="83" y2="287" style="stroke:GoldenRod" />
<line x1="83" y1="287" x2="191" y2="228" style="stroke:GoldenRod" />
<line x1="191" y1="228" x2="131" y2="120" style="stroke:GoldenRod" />
<line x1="131" y1="120" x2="24" y2="180" style="stroke:GoldenRod" />
<line x1="5" y1="279" x2="114" y2="362" style="stroke:GoldenRod" />
<line x1="114" y1="362" x2="197" y2="253" style="stroke:GoldenRod" />
<line x1="197" y1="253" x2="88" y2="170" style="stroke:GoldenRod" />
<line x1="88" y1="170" x2="5" y2="279" style="stroke:GoldenRod" />
<line x1="8" y1="278" x2="114" y2="359" style="stroke:GoldenRod" />
<line x1="114" y1="359" x2="194" y2="253" style="stroke:GoldenRod" />
<line x1="194" y1="253" x2="88" y2="173" style="stroke:GoldenRod" />
<line x1="88" y1="173" x2="8" y2="278" style="stroke:GoldenRod" />
<line x1="11" y1="278" x2="113" y2="356" style="stroke:GoldenRod" />
<line x1="113" y1="356" x2="191" y2="253" style="stroke:GoldenRod" />
<line x1="191" y1="253" x2="88" y2="175" style="stroke:GoldenRod" />
<line x1="88" y1="175" x2="11" y2="278" style="stroke:GoldenRod" />
<line x1="13" y1="277" x2="112" y2="354" style="stroke:GoldenRod" />
<line x1="112" y1="354" x2="189" y2="254" style="stroke:GoldenRod" />
<line x1="189" y1="254" x2="90" y2="177" style="stroke:GoldenRod" />
<line x1="90" y1="177" x2="13" y2="277" style="stroke:GoldenRod" />
<line x1="15" y1="278" x2="113" y2="352" style="stroke:GoldenRod" />
<line x1="113" y1="352" x2="187" y2="254" style="stroke:GoldenRod" />
<line x1="187" y1="254" x2="89" y2="179" style="stroke:GoldenRod" />
<line x1="89" y1="179" x2="15" y2="278" style="stroke:GoldenRod" />
<line x1="38" y1="376" x2="171" y2="408" style="stroke:GoldenRod" />
<line x1="171" y1="408" x2="203" y2="274" style="stroke:GoldenRod" />
<line x1="203" y1="274" x2="69" y2="242" style="stroke:GoldenRod" />
<line x1="69" y1="242" x2="38" y2="376" style="stroke:GoldenRod" />
<line x1="40" y1="375" x2="170" y2="405" style="stroke:GoldenRod" />
<line x1="170" y1="405" x2="200" y2="275" style="stroke:GoldenRod" />
<line x1="200" y1="275" x2="70" y2="245" style="stroke:GoldenRod" />
<line x1="70" y1="245" x2="40" y2="375" style="stroke:GoldenRod" />
<line x1="43" y1="373" x2="168" y2="402" style="stroke:GoldenRod" />
<line x1="168" y1="402" x2="197" y2="277" style="stroke:GoldenRod" />
<line x1="197" y1="277" x2="72" y2="248" style="stroke:GoldenRod" />
<line x1="72" y1="248" x2="43" y2="373" style="stroke:GoldenRod" />
<line x1="44" y1="371" x2="166" y2="401" style="stroke:GoldenRod" />
<line x1="166" y1="401" x2="196" y2="279" style="stroke:GoldenRod" />
<line x1="196" y1="279" x2="74" y2="249" style="stroke:GoldenRod" />
<line x1="74" y1="249" x2="44" y2="371" style="stroke:GoldenRod" />
<line x1="46" y1="371" x2="166" y2="399" style="stroke:GoldenRod" />
<line x1="166" y1="399" x2="194" y2="279" style="stroke:GoldenRod" />
<line x1="194" y1="279" x2="74" y2="251" style="stroke:GoldenRod" />
<line x1="74" y1="251" x2="46" y2="371" style="stroke:GoldenRod" />
<line x1="107" y1="452" x2="242" y2="426" style="stroke:GoldenRod" />
<line x1="242" y1="426" x2="216" y2="291" style="stroke:GoldenRod" />
<line x1="216" y1="291" x2="82" y2="317" style="stroke:GoldenRod" />
<line x1="82" y1="317" x2="107" y2="452" style="stroke:GoldenRod" />
<line x1="109" y1="449" x2="240" y2="424" style="stroke:GoldenRod" />
<line x1="240" y1="424" x2="215" y2="294" style="stroke:GoldenRod" />
<line x1="215" y1="294" x2="84" y2="319" style="stroke:GoldenRod" />
<line x1="84" y1="319" x2="109" y2="449" style="stroke:GoldenRod" />
<line x1="111" y1="447" x2="237" y2="422" style="stroke:GoldenRod" />
<line x1="237" y1="422" x2="213" y2="296" style="stroke:GoldenRod" />
<line x1="213" y1="296" x2="86" y2="320" style="stroke:GoldenRod" />
<line x1="86" y1="320" x2="111" y2="447" style="stroke:GoldenRod" />
<line x1="111" y1="445" x2="235" y2="422" style="stroke:GoldenRod" />
<line x1="235" y1="422" x2="213" y2="298" style="stroke:GoldenRod" />
<line x1="213" y1="298" x2="89" y2="321" style="stroke:GoldenRod" />
<line x1="89" y1="321" x2="111" y2="445" style="stroke:GoldenRod" />
<line x1="113" y1="444" x2="234" y2="420" style="stroke:GoldenRod" />
<line x1="234" y1="420" x2="211" y2="299" style="stroke:GoldenRod" />
<line x1="211" y1="299" x2="90" y2="323" style="stroke:GoldenRod" />
<line x1="90" y1="323" x2="113" y2="444" style="stroke:GoldenRod" />
<line x1="202" y1="492" x2="314" y2="414" style="stroke:GoldenRod" />
<line x1="314" y1="414" x2="236" y2="301" style="stroke:GoldenRod" />
<line x1="236" y1="301" x2="123" y2="379" style="stroke:GoldenRod" />
<line x1="123" y1="379" x2="202" y2="492" style="stroke:GoldenRod" />
<line x1="202" y1="489" x2="311" y2="413" style="stroke:GoldenRod" />
<line x1="311" y1="413" x2="235" y2="304" style="stroke:GoldenRod" />
<line x1="235" y1="304" x2="126" y2="380" style="stroke:GoldenRod" />
<line x1="126" y1="380" x2="202" y2="489" style="stroke:GoldenRod" />
<line x1="203" y1="486" x2="308" y2="413" style="stroke:GoldenRod" />
<line x1="308" y1="413" x2="235" y2="307" style="stroke:GoldenRod" />
<line x1="235" y1="307" x2="129" y2="381" style="stroke:GoldenRod" />
<line x1="129" y1="381" x2="203" y2="486" style="stroke:GoldenRod" />
<line x1="202" y1="484" x2="306" y2="413" style="stroke:GoldenRod" />
<line x1="306" y1="413" x2="235" y2="309" style="stroke:GoldenRod" />
<line x1="235" y1="309" x2="131" y2="380" style="stroke:GoldenRod" />
<line x1="131" y1="380" x2="202" y2="484" style="stroke:GoldenRod" />
<line x1="204" y1="482" x2="305" y2="412" style="stroke:GoldenRod" />
<line x1="305" y1="412" x2="234" y2="311" style="stroke:GoldenRod" />
<line x1="234" y1="311" x2="133" y2="382" style="stroke:GoldenRod" />
<line x1="133" y1="382" x2="204" y2="482" style="stroke:GoldenRod" />
<line x1="304" y1="491" x2="375" y2="374" style="stroke:GoldenRod" />
<line x1="375" y1="374" x2="258" y2="302" style="stroke:GoldenRod" />
<line x1="258" y1="302" x2="187" y2="420" style="stroke:GoldenRod" />
<line x1="187" y1="420" x2="304" y2="491" style="stroke:GoldenRod" />
<line x1="304" y1="488" x2="373" y2="374" style="stroke:GoldenRod" />
<line x1="373" y1="374" x2="259" y2="305" style="stroke:GoldenRod" />
<line x1="259" y1="305" x2="190" y2="419" style="stroke:GoldenRod" />
<line x1="190" y1="419" x2="304" y2="488" style="stroke:GoldenRod" />
<line x1="303" y1="485" x2="370" y2="375" style="stroke:GoldenRod" />
<line x1="370" y1="375" x2="259" y2="308" style="stroke:GoldenRod" />
<line x1="259" y1="308" x2="193" y2="419" style="stroke:GoldenRod" />
<line x1="193" y1="419" x2="303" y2="485" style="stroke:GoldenRod" />
<line x1="302" y1="483" x2="368" y2="376" style="stroke:GoldenRod" />
<line x1="368" y1="376" x2="261" y2="310" style="stroke:GoldenRod" />
<line x1="261" y1="310" x2="195" y2="417" style="stroke:GoldenRod" />
<line x1="195" y1="417" x2="302" y2="483" style="stroke:GoldenRod" />
<line x1="302" y1="481" x2="366" y2="376" style="stroke:GoldenRod" />
<line x1="366" y1="376" x2="260" y2="312" style="stroke:GoldenRod" />
<line x1="260" y1="312" x2="197" y2="418" style="stroke:GoldenRod" />
<line x1="197" y1="418" x2="302" y2="481" style="stroke:GoldenRod" />
<line x1="398" y1="448" x2="415" y2="312" style="stroke:GoldenRod" />
<line x1="415" y1="312" x2="279" y2="295" style="stroke:GoldenRod" />
<line x1="279" y1="295" x2="261" y2="431" style="stroke:GoldenRod" />
<line x1="261" y1="431" x2="398" y2="448" style="stroke:GoldenRod" />
<line x1="396" y1="446" x2="412" y2="314" style="stroke:GoldenRod" />
<line x1="412" y1="314" x2="280" y2="297" style="stroke:GoldenRod" />
<line x1="280" y1="297" x2="264" y2="429" style="stroke:GoldenRod" />
<line x1="264" y1="429" x2="396" y2="446" style="stroke:GoldenRod" />
<line x1="394" y1="443" x2="410" y2="315" style="stroke:GoldenRod" />
<line x1="410" y1="315" x2="282" y2="299" style="stroke:GoldenRod" />
<line x1="282" y1="299" x2="266" y2="427" style="stroke:GoldenRod" />
<line x1="266" y1="427" x2="394" y2="443" style="stroke:GoldenRod" />
<line x1="392" y1="442" x2="409" y2="317" style="stroke:GoldenRod" />
<line x1="409" y1="317" x2="284" y2="301" style="stroke:GoldenRod" />
<line x1="284" y1="301" x2="267" y2="425" style="stroke:GoldenRod" />
<line x1="267" y1="425" x2="392" y2="442" style="stroke:GoldenRod" />
<line x1="392" y1="440" x2="407" y2="318" style="stroke:GoldenRod" />
<line x1="407" y1="318" x2="285" y2="303" style="stroke:GoldenRod" />
<line x1="285" y1="303" x2="270" y2="425" style="stroke:GoldenRod" />
<line x1="270" y1="425" x2="392" y2="440" style="stroke:GoldenRod" />
<line x1="465" y1="371" x2="426" y2="239" style="stroke:GoldenRod" />
<line x1="426" y1="239" x2="294" y2="279" style="stroke:GoldenRod" />
<line x1="294" y1="279" x2="334" y2="411" style="stroke:GoldenRod" />
<line x1="334" y1="411" x2="465" y2="371" style="stroke:GoldenRod" />
<line x1="463" y1="369" x2="424" y2="242" style="stroke:GoldenRod" />
<line x1="424" y1="242" x2="297" y2="281" style="stroke:GoldenRod" />
<line x1="297" y1="281" x2="336" y2="408" style="stroke:GoldenRod" />
<line x1="336" y1="408" x2="463" y2="369" style="stroke:GoldenRod" />
<line x1="460" y1="368" x2="423" y2="245" style="stroke:GoldenRod" />
<line x1="423" y1="245" x2="300" y2="282" style="stroke:GoldenRod" />
<line x1="300" y1="282" x2="337" y2="405" style="stroke:GoldenRod" />
<line x1="337" y1="405" x2="460" y2="368" style="stroke:GoldenRod" />
<line x1="458" y1="368" x2="423" y2="247" style="stroke:GoldenRod" />
<line x1="423" y1="247" x2="302" y2="282" style="stroke:GoldenRod" />
<line x1="302" y1="282" x2="337" y2="403" style="stroke:GoldenRod" />
<line x1="337" y1="403" x2="458" y2="368" style="stroke:GoldenRod" />
<line x1="457" y1="366" x2="421" y2="248" style="stroke:GoldenRod" />
<line x1="421" y1="248" x2="303" y2="284" style="stroke:GoldenRod" />
<line x1="303" y1="284" x2="339" y2="402" style="stroke:GoldenRod" />
<line x1="339" y1="402" x2="457" y2="366" style="stroke:GoldenRod" />
<line x1="496" y1="273" x2="406" y2="169" style="stroke:GoldenRod" />
<line x1="406" y1="169" x2="302" y2="259" style="stroke:GoldenRod" />
<line x1="302" y1="259" x2="392" y2="362" style="stroke:GoldenRod" />
<line x1="392" y1="362" x2="496" y2="273" style="stroke:GoldenRod" />
<line x1="493" y1="273" x2="406" y2="172" style="stroke:GoldenRod" />
<line x1="406" y1="172" x2="305" y2="259" style="stroke:GoldenRod" />
<line x1="305" y1="259" x2="392" y2="359" style="stroke:GoldenRod" />
<line x1="392" y1="359" x2="493" y2="273" style="stroke:GoldenRod" />
<line x1="490" y1="272" x2="406" y2="175" style="stroke:GoldenRod" />
<line x1="406" y1="175" x2="308" y2="259" style="stroke:GoldenRod" />
<line x1="308" y1="259" x2="393" y2="356" style="stroke:GoldenRod" />
<line x1="393" y1="356" x2="490" y2="272" style="stroke:GoldenRod" />
<line x1="488" y1="273" x2="406" y2="177" style="stroke:GoldenRod" />
<line x1="406" y1="177" x2="310" y2="258" style="stroke:GoldenRod" />
<line x1="310" y1="258" x2="392" y2="354" style="stroke:GoldenRod" />
<line x1="392" y1="354" x2="488" y2="273" style="stroke:GoldenRod" />
<line x1="486" y1="272" x2="405" y2="179" style="stroke:GoldenRod" />
<line x1="405" y1="179" x2="312" y2="260" style="stroke:GoldenRod" />
<line x1="312" y1="260" x2="393" y2="353" style="stroke:GoldenRod" />
<line x1="393" y1="353" x2="486" y2="272" style="stroke:GoldenRod" />
<line x1="484" y1="171" x2="360" y2="112" style="stroke:GoldenRod" />
<line x1="360" y1="112" x2="301" y2="236" style="stroke:GoldenRod" />
<line x1="301" y1="236" x2="425" y2="295" style="stroke:GoldenRod" />
<line x1="425" y1="295" x2="484" y2="171" style="stroke:GoldenRod" />
<line x1="481" y1="172" x2="361" y2="115" style="stroke:GoldenRod" />
<line x1="361" y1="115" x2="304" y2="236" style="stroke:GoldenRod" />
<line x1="304" y1="236" x2="425" y2="292" style="stroke:GoldenRod" />
<line x1="425" y1="292" x2="481" y2="172" style="stroke:GoldenRod" />
<line x1="478" y1="173" x2="362" y2="118" style="stroke:GoldenRod" />
<line x1="362" y1="118" x2="307" y2="235" style="stroke:GoldenRod" />
<line x1="307" y1="235" x2="424" y2="289" style="stroke:GoldenRod" />
<line x1="424" y1="289" x2="478" y2="173" style="stroke:GoldenRod" />
<line x1="477" y1="174" x2="363" y2="120" style="stroke:GoldenRod" />
<line x1="363" y1="120" x2="309" y2="233" style="stroke:GoldenRod" />
<line x1="309" y1="233" x2="422" y2="288" style="stroke:GoldenRod" />
<line x1="422" y1="288" x2="477" y2="174" style="stroke:GoldenRod" />
<line x1="474" y1="174" x2="363" y2="122" style="stroke:GoldenRod" />
<line x1="363" y1="122" x2="311" y2="233" style="stroke:GoldenRod" />
<line x1="311" y1="233" x2="422" y2="285" style="stroke:GoldenRod" />
<line x1="422" y1="285" x2="474" y2="174" style="stroke:GoldenRod" />
<line x1="432" y1="82" x2="294" y2="80" style="stroke:GoldenRod" />
<line x1="294" y1="80" x2="291" y2="217" style="stroke:GoldenRod" />
<line x1="291" y1="217" x2="429" y2="220" style="stroke:GoldenRod" />
<line x1="429" y1="220" x2="432" y2="82" style="stroke:GoldenRod" />
<line x1="429" y1="85" x2="296" y2="82" style="stroke:GoldenRod" />
<line x1="296" y1="82" x2="294" y2="215" style="stroke:GoldenRod" />
<line x1="294" y1="215" x2="427" y2="217" style="stroke:GoldenRod" />
<line x1="427" y1="217" x2="429" y2="85" style="stroke:GoldenRod" />
<line x1="427" y1="87" x2="298" y2="84" style="stroke:GoldenRod" />
<line x1="298" y1="84" x2="296" y2="213" style="stroke:GoldenRod" />
<line x1="296" y1="213" x2="425" y2="215" style="stroke:GoldenRod" />
<line x1="425" y1="215" x2="427" y2="87" style="stroke:GoldenRod" />
<line x1="426" y1="89" x2="300" y2="85" style="stroke:GoldenRod" />
<line x1="300" y1="85" x2="297" y2="211" style="stroke:GoldenRod" />
<line x1="297" y1="211" x2="423" y2="214" style="stroke:GoldenRod" />
<line x1="423" y1="214" x2="426" y2="89" style="stroke:GoldenRod" />
<line x1="424" y1="89" x2="301" y2="87" style="stroke:GoldenRod" />
<line x1="301" y1="87" x2="299" y2="210" style="stroke:GoldenRod" />
<line x1="299" y1="210" x2="422" y2="212" style="stroke:GoldenRod" />
<line x1="422" y1="212" x2="424" y2="89" style="stroke:GoldenRod" />
<line x1="348" y1="23" x2="221" y2="76" style="stroke:GoldenRod" />
<line x1="221" y1="76" x2="274" y2="203" style="stroke:GoldenRod" />
<line x1="274" y1="203" x2="401" y2="150" style="stroke:GoldenRod" />
<line x1="401" y1="150" x2="348" y2="23" style="stroke:GoldenRod" />
<line x1="347" y1="26" x2="224" y2="77" style="stroke:GoldenRod" />
<line x1="224" y1="77" x2="276" y2="200" style="stroke:GoldenRod" />
<line x1="276" y1="200" x2="398" y2="148" style="stroke:GoldenRod" />
<line x1="398" y1="148" x2="347" y2="26" style="stroke:GoldenRod" />
<line x1="345" y1="29" x2="227" y2="79" style="stroke:GoldenRod" />
<line x1="227" y1="79" x2="277" y2="197" style="stroke:GoldenRod" />
<line x1="277" y1="197" x2="395" y2="147" style="stroke:GoldenRod" />
<line x1="395" y1="147" x2="345" y2="29" style="stroke:GoldenRod" />
<line x1="345" y1="31" x2="229" y2="79" style="stroke:GoldenRod" />
<line x1="229" y1="79" x2="277" y2="195" style="stroke:GoldenRod" />
<line x1="277" y1="195" x2="393" y2="147" style="stroke:GoldenRod" />
<line x1="393" y1="147" x2="345" y2="31" style="stroke:GoldenRod" />
<line x1="344" y1="32" x2="230" y2="80" style="stroke:GoldenRod" />
<line x1="230" y1="80" x2="278" y2="194" style="stroke:GoldenRod" />
<line x1="278" y1="194" x2="392" y2="146" style="stroke:GoldenRod" />
<line x1="392" y1="146" x2="344" y2="32" style="stroke:GoldenRod" />
</svg>
