<svg xmlns="http://www.w3.org/2000/svg" version="1.1" width="500" height="500">
<rect x="0" y="0" width="500" height="500" style="stroke:#000;fill:none" />
<line x1="250" y1="50" x2="50" y2="250" style="stroke:BlanchedAlmond" />
<line x1="50" y1="250" x2="250" y2="450" style="stroke:BlanchedAlmond" />
<line x1="250" y1="450" x2="450" y2="250" style="stroke:BlanchedAlmond" />
<line x1="450" y1="250" x2="250" y2="50" style="stroke:BlanchedAlmond" />
<line x1="247" y1="56" x2="56" y2="253" style="stroke:BlanchedAlmond" />
<line x1="56" y1="253" x2="253" y2="444" style="stroke:BlanchedAlmond" />
<line x1="253" y1="444" x2="444" y2="247" style="stroke:BlanchedAlmond" />
<line x1="444" y1="247" x2="247" y2="56" style="stroke:BlanchedAlmond" />
<line x1="244" y1="62" x2="62" y2="256" style="stroke:BlanchedAlmond" />
<line x1="62" y1="256" x2="256" y2="438" style="stroke:BlanchedAlmond" />
<line x1="256" y1="438" x2="438" y2="244" style="stroke:BlanchedAlmond" />
<line x1="438" y1="244" x2="244" y2="62" style="stroke:BlanchedAlmond" />
<line x1="241" y1="68" x2="68" y2="259" style="stroke:BlanchedAlmond" />
<line x1="68" y1="259" x2="259" y2="432" style="stroke:BlanchedAlmond" />
<line x1="259" y1="432" x2="432" y2="241" style="stroke:BlanchedAlmond" />
<line x1="432" y1="241" x2="241" y2="68" style="stroke:BlanchedAlmond" />
<line x1="239" y1="73" x2="73" y2="261" style="stroke:BlanchedAlmond" />
<line x1="73" y1="261" x2="261" y2="427" style="stroke:BlanchedAlmond" />
<line x1="261" y1="427" x2="427" y2="239" style="stroke:BlanchedAlmond" />
<line x1="427" y1="239" x2="239" y2="73" style="stroke:BlanchedAlmond" />
<line x1="237" y1="79" x2="79" y2="263" style="stroke:BlanchedAlmond" />
<line x1="79" y1="263" x2="263" y2="421" style="stroke:BlanchedAlmond" />
<line x1="263" y1="421" x2="421" y2="237" style="stroke:BlanchedAlmond" />
<line x1="421" y1="237" x2="237" y2="79" style="stroke:BlanchedAlmond" />
<line x1="234" y1="84" x2="84" y2="266" style="stroke:BlanchedAlmond" />
<line x1="84" y1="266" x2="266" y2="416" style="stroke:BlanchedAlmond" />
<line x1="266" y1="416" x2="416" y2="234" style="stroke:BlanchedAlmond" />
<line x1="416" y1="234" x2="234" y2="84" style="stroke:BlanchedAlmond" />
<line x1="232" y1="89" x2="89" y2="268" style="stroke:BlanchedAlmond" />
<line x1="89" y1="268" x2="268" y2="411" style="stroke:BlanchedAlmond" />
<line x1="268" y1="411" x2="411" y2="232" style="stroke:BlanchedAlmond" />
<line x1="411" y1="232" x2="232" y2="89" style="stroke:BlanchedAlmond" />
<line x1="230" y1="94" x2="94" y2="270" style="stroke:BlanchedAlmond" />
<line x1="94" y1="270" x2="270" y2="406" style="stroke:BlanchedAlmond" />
<line x1="270" y1="406" x2="406" y2="230" style="stroke:BlanchedAlmond" />
<line x1="406" y1="230" x2="230" y2="94" style="stroke:BlanchedAlmond" />
<line x1="229" y1="99" x2="99" y2="271" style="stroke:BlanchedAlmond" />
<line x1="99" y1="271" x2="271" y2="401" style="stroke:BlanchedAlmond" />
<line x1="271" y1="401" x2="401" y2="229" style="stroke:BlanchedAlmond" />
<line x1="401" y1="229" x2="229" y2="99" style="stroke:BlanchedAlmond" />
<line x1="227" y1="104" x2="104" y2="273" style="stroke:BlanchedAlmond" />
<line x1="104" y1="273" x2="273" y2="396" style="stroke:BlanchedAlmond" />
<line x1="273" y1="396" x2="396" y2="227" style="stroke:BlanchedAlmond" />
<line x1="396" y1="227" x2="227" y2="104" style="stroke:BlanchedAlmond" />
<line x1="225" y1="109" x2="109" y2="275" style="stroke:BlanchedAlmond" />
<line x1="109" y1="275" x2="275" y2="391" style="stroke:BlanchedAlmond" />
<line x1="275" y1="391" x2="391" y2="225" style="stroke:BlanchedAlmond" />
<line x1="391" y1="225" x2="225" y2="109" style="stroke:BlanchedAlmond" />
<line x1="224" y1="114" x2="114" y2="276" style="stroke:BlanchedAlmond" />
<line x1="114" y1="276" x2="276" y2="386" style="stroke:BlanchedAlmond" />
<line x1="276" y1="386" x2="386" y2="224" style="stroke:BlanchedAlmond" />
<line x1="386" y1="224" x2="224" y2="114" style="stroke:BlanchedAlmond" />
<line x1="223" y1="118" x2="118" y2="277" style="stroke:BlanchedAlmond" />
<line x1="118" y1="277" x2="277" y2="382" style="stroke:BlanchedAlmond" />
<line x1="277" y1="382" x2="382" y2="223" style="stroke:BlanchedAlmond" />
<line x1="382" y1="223" x2="223" y2="118" style="stroke:BlanchedAlmond" />
<line x1="222" y1="123" x2="123" y2="278" style="stroke:BlanchedAlmond" />
<line x1="123" y1="278" x2="278" y2="377" style="stroke:BlanchedAlmond" />
<line x1="278" y1="377" x2="377" y2="222" style="stroke:BlanchedAlmond" />
<line x1="377" y1="222" x2="222" y2="123" style="stroke:BlanchedAlmond" />
<line x1="220" y1="127" x2="127" y2="280" style="stroke:BlanchedAlmond" />
<line x1="127" y1="280" x2="280" y2="373" style="stroke:BlanchedAlmond" />
<line x1="280" y1="373" x2="373" y2="220" style="stroke:BlanchedAlmond" />
<line x1="373" y1="220" x2="220" y2="127" style="stroke:BlanchedAlmond" />
<line x1="219" y1="131" x2="131" y2="281" style="stroke:BlanchedAlmond" />
<line x1="131" y1="281" x2="281" y2="369" style="stroke:BlanchedAlmond" />
<line x1="281" y1="369" x2="369" y2="219" style="stroke:BlanchedAlmond" />
<line x1="369" y1="219" x2="219" y2="131" style="stroke:BlanchedAlmond" />
<line x1="219" y1="135" x2="135" y2="281" style="stroke:BlanchedAlmond" />
<line x1="135" y1="281" x2="281" y2="365" style="stroke:BlanchedAlmond" />
<line x1="281" y1="365" x2="365" y2="219" style="stroke:BlanchedAlmond" />
<line x1="365" y1="219" x2="219" y2="135" style="stroke:BlanchedAlmond" />
<line x1="218" y1="139" x2="139" y2="282" style="stroke:BlanchedAlmond" />
<line x1="139" y1="282" x2="282" y2="361" style="stroke:BlanchedAlmond" />
<line x1="282" y1="361" x2="361" y2="218" style="stroke:BlanchedAlmond" />
<line x1="361" y1="218" x2="218" y2="139" style="stroke:BlanchedAlmond" />
<line x1="217" y1="143" x2="143" y2="283" style="stroke:BlanchedAlmond" />
<line x1="143" y1="283" x2="283" y2="357" style="stroke:BlanchedAlmond" />
<line x1="283" y1="357" x2="357" y2="217" style="stroke:BlanchedAlmond" />
<line x1="357" y1="217" x2="217" y2="143" style="stroke:BlanchedAlmond" />
<line x1="216" y1="147" x2="147" y2="284" style="stroke:BlanchedAlmond" />
<line x1="147" y1="284" x2="284" y2="353" style="stroke:BlanchedAlmond" />
<line x1="284" y1="353" x2="353" y2="216" style="stroke:BlanchedAlmond" />
<line x1="353" y1="216" x2="216" y2="147" style="stroke:BlanchedAlmond" />
<line x1="216" y1="150" x2="150" y2="284" style="stroke:BlanchedAlmond" />
<line x1="150" y1="284" x2="284" y2="350" style="stroke:BlanchedAlmond" />
<line x1="284" y1="350" x2="350" y2="216" style="stroke:BlanchedAlmond" />
<line x1="350" y1="216" x2="216" y2="150" style="stroke:BlanchedAlmond" />
<line x1="215" y1="154" x2="154" y2="285" style="stroke:BlanchedAlmond" />
<line x1="154" y1="285" x2="285" y2="346" style="stroke:BlanchedAlmond" />
<line x1="285" y1="346" x2="346" y2="215" style="stroke:BlanchedAlmond" />
<line x1="346" y1="215" x2="215" y2="154" style="stroke:BlanchedAlmond" />
<line x1="215" y1="157" x2="157" y2="285" style="stroke:BlanchedAlmond" />
<line x1="157" y1="285" x2="285" y2="343" style="stroke:BlanchedAlmond" />
<line x1="285" y1="343" x2="343" y2="215" style="stroke:BlanchedAlmond" />
<line x1="343" y1="215" x2="215" y2="157" style="stroke:BlanchedAlmond" />
<line x1="215" y1="160" x2="160" y2="285" style="stroke:BlanchedAlmond" />
<line x1="160" y1="285" x2="285" y2="340" style="stroke:BlanchedAlmond" />
<line x1="285" y1="340" x2="340" y2="215" style="stroke:BlanchedAlmond" />
<line x1="340" y1="215" x2="215" y2="160" style="stroke:BlanchedAlmond" />
<line x1="214" y1="164" x2="164" y2="286" style="stroke:BlanchedAlmond" />
<line x1="164" y1="286" x2="286" y2="336" style="stroke:BlanchedAlmond" />
<line x1="286" y1="336" x2="336" y2="214" style="stroke:BlanchedAlmond" />
<line x1="336" y1="214" x2="214" y2="164" style="stroke:BlanchedAlmond" />
<line x1="214" y1="167" x2="167" y2="286" style="stroke:BlanchedAlmond" />
<line x1="167" y1="286" x2="286" y2="333" style="stroke:BlanchedAlmond" />
<line x1="286" y1="333" x2="333" y2="214" style="stroke:BlanchedAlmond" />
<line x1="333" y1="214" x2="214" y2="167" style="stroke:BlanchedAlmond" />
<line x1="214" y1="170" x2="170" y2="286" style="stroke:BlanchedAlmond" />
<line x1="170" y1="286" x2="286" y2="330" style="stroke:BlanchedAlmond" />
<line x1="286" y1="330" x2="330" y2="214" style="stroke:BlanchedAlmond" />
<line x1="330" y1="214" x2="214" y2="170" style="stroke:BlanchedAlmond" />
<line x1="214" y1="173" x2="173" y2="286" style="stroke:BlanchedAlmond" />
<line x1="173" y1="286" x2="286" y2="327" style="stroke:BlanchedAlmond" />
<line x1="286" y1="327" x2="327" y2="214" style="stroke:BlanchedAlmond" />
<line x1="327" y1="214" x2="214" y2="173" style="stroke:BlanchedAlmond" />
<line x1="214" y1="176" x2="176" y2="286" style="stroke:BlanchedAlmond" />
<line x1="176" y1="286" x2="286" y2="324" style="stroke:BlanchedAlmond" />
<line x1="286" y1="324" x2="324" y2="214" style="stroke:BlanchedAlmond" />
<line x1="324" y1="214" x2="214" y2="176" style="stroke:BlanchedAlmond" />
</svg>
