<svg xmlns="http://www.w3.org/2000/svg" version="1.1" width="500" height="500">
<rect x="0" y="0" width="500" height="500" style="stroke:#000;fill:none" />
<line x1="250" y1="100" x2="100" y2="250" style="stroke:Black" />
<line x1="100" y1="250" x2="250" y2="400" style="stroke:Black" />
<line x1="250" y1="400" x2="400" y2="250" style="stroke:Black" />
<line x1="248" y1="105" x2="105" y2="252" style="stroke:Black" />
<line x1="105" y1="252" x2="252" y2="395" style="stroke:Black" />
<line x1="252" y1="395" x2="395" y2="248" style="stroke:Black" />
<line x1="395" y1="248" x2="248" y2="105" style="stroke:Black" />
<line x1="246" y1="109" x2="109" y2="254" style="stroke:Black" />
<line x1="109" y1="254" x2="254" y2="391" style="stroke:Black" />
<line x1="254" y1="391" x2="391" y2="246" style="stroke:Black" />
<line x1="391" y1="246" x2="246" y2="109" style="stroke:Black" />
<line x1="244" y1="113" x2="113" y2="256" style="stroke:Black" />
<line x1="113" y1="256" x2="256" y2="387" style="stroke:Black" />
<line x1="256" y1="387" x2="387" y2="244" style="stroke:Black" />
<line x1="387" y1="244" x2="244" y2="113" style="stroke:Black" />
<line x1="242" y1="117" x2="117" y2="258" style="stroke:Black" />
<line x1="117" y1="258" x2="258" y2="383" style="stroke:Black" />
<line x1="258" y1="383" x2="383" y2="242" style="stroke:Black" />
<line x1="383" y1="242" x2="242" y2="117" style="stroke:Black" />
<line x1="240" y1="122" x2="122" y2="260" style="stroke:Black" />
<line x1="122" y1="260" x2="260" y2="378" style="stroke:Black" />
<line x1="260" y1="378" x2="378" y2="240" style="stroke:Black" />
<line x1="378" y1="240" x2="240" y2="122" style="stroke:Black" />
<line x1="238" y1="126" x2="126" y2="262" style="stroke:Black" />
<line x1="126" y1="262" x2="262" y2="374" style="stroke:Black" />
<line x1="262" y1="374" x2="374" y2="238" style="stroke:Black" />
<line x1="374" y1="238" x2="238" y2="126" style="stroke:Black" />
<line x1="237" y1="130" x2="130" y2="263" style="stroke:Black" />
<line x1="130" y1="263" x2="263" y2="370" style="stroke:Black" />
<line x1="263" y1="370" x2="370" y2="237" style="stroke:Black" />
<line x1="370" y1="237" x2="237" y2="130" style="stroke:Black" />
<line x1="235" y1="133" x2="133" y2="265" style="stroke:Black" />
<line x1="133" y1="265" x2="265" y2="367" style="stroke:Black" />
<line x1="265" y1="367" x2="367" y2="235" style="stroke:Black" />
<line x1="367" y1="235" x2="235" y2="133" style="stroke:Black" />
<line x1="234" y1="137" x2="137" y2="266" style="stroke:Black" />
<line x1="137" y1="266" x2="266" y2="363" style="stroke:Black" />
<line x1="266" y1="363" x2="363" y2="234" style="stroke:Black" />
<line x1="363" y1="234" x2="234" y2="137" style="stroke:Black" />
<line x1="233" y1="141" x2="141" y2="267" style="stroke:Black" />
<line x1="141" y1="267" x2="267" y2="359" style="stroke:Black" />
<line x1="267" y1="359" x2="359" y2="233" style="stroke:Black" />
<line x1="359" y1="233" x2="233" y2="141" style="stroke:Black" />
<line x1="232" y1="144" x2="144" y2="268" style="stroke:Black" />
<line x1="144" y1="268" x2="268" y2="356" style="stroke:Black" />
<line x1="268" y1="356" x2="356" y2="232" style="stroke:Black" />
<line x1="356" y1="232" x2="232" y2="144" style="stroke:Black" />
<line x1="230" y1="148" x2="148" y2="270" style="stroke:Black" />
<line x1="148" y1="270" x2="270" y2="352" style="stroke:Black" />
<line x1="270" y1="352" x2="352" y2="230" style="stroke:Black" />
<line x1="352" y1="230" x2="230" y2="148" style="stroke:Black" />
<line x1="230" y1="151" x2="151" y2="270" style="stroke:Black" />
<line x1="151" y1="270" x2="270" y2="349" style="stroke:Black" />
<line x1="270" y1="349" x2="349" y2="230" style="stroke:Black" />
<line x1="349" y1="230" x2="230" y2="151" style="stroke:Black" />
<line x1="229" y1="154" x2="154" y2="271" style="stroke:Black" />
<line x1="154" y1="271" x2="271" y2="346" style="stroke:Black" />
<line x1="271" y1="346" x2="346" y2="229" style="stroke:Black" />
<line x1="346" y1="229" x2="229" y2="154" style="stroke:Black" />
<line x1="228" y1="158" x2="158" y2="272" style="stroke:Black" />
<line x1="158" y1="272" x2="272" y2="342" style="stroke:Black" />
<line x1="272" y1="342" x2="342" y2="228" style="stroke:Black" />
<line x1="342" y1="228" x2="228" y2="158" style="stroke:Black" />
<line x1="227" y1="161" x2="161" y2="273" style="stroke:Black" />
<line x1="161" y1="273" x2="273" y2="339" style="stroke:Black" />
<line x1="273" y1="339" x2="339" y2="227" style="stroke:Black" />
<line x1="339" y1="227" x2="227" y2="161" style="stroke:Black" />
<line x1="226" y1="164" x2="164" y2="274" style="stroke:Black" />
<line x1="164" y1="274" x2="274" y2="336" style="stroke:Black" />
<line x1="274" y1="336" x2="336" y2="226" style="stroke:Black" />
<line x1="336" y1="226" x2="226" y2="164" style="stroke:Black" />
<line x1="226" y1="167" x2="167" y2="274" style="stroke:Black" />
<line x1="167" y1="274" x2="274" y2="333" style="stroke:Black" />
<line x1="274" y1="333" x2="333" y2="226" style="stroke:Black" />
<line x1="333" y1="226" x2="226" y2="167" style="stroke:Black" />
<line x1="225" y1="170" x2="170" y2="275" style="stroke:Black" />
<line x1="170" y1="275" x2="275" y2="330" style="stroke:Black" />
<line x1="275" y1="330" x2="330" y2="225" style="stroke:Black" />
<line x1="330" y1="225" x2="225" y2="170" style="stroke:Black" />
<line x1="225" y1="172" x2="172" y2="275" style="stroke:Black" />
<line x1="172" y1="275" x2="275" y2="328" style="stroke:Black" />
<line x1="275" y1="328" x2="328" y2="225" style="stroke:Black" />
<line x1="328" y1="225" x2="225" y2="172" style="stroke:Black" />
<line x1="224" y1="175" x2="175" y2="276" style="stroke:Black" />
<line x1="175" y1="276" x2="276" y2="325" style="stroke:Black" />
<line x1="276" y1="325" x2="325" y2="224" style="stroke:Black" />
<line x1="325" y1="224" x2="224" y2="175" style="stroke:Black" />
<line x1="224" y1="178" x2="178" y2="276" style="stroke:Black" />
<line x1="178" y1="276" x2="276" y2="322" style="stroke:Black" />
<line x1="276" y1="322" x2="322" y2="224" style="stroke:Black" />
<line x1="322" y1="224" x2="224" y2="178" style="stroke:Black" />
<line x1="224" y1="180" x2="180" y2="276" style="stroke:Black" />
<line x1="180" y1="276" x2="276" y2="320" style="stroke:Black" />
<line x1="276" y1="320" x2="320" y2="224" style="stroke:Black" />
<line x1="320" y1="224" x2="224" y2="180" style="stroke:Black" />
<line x1="223" y1="183" x2="183" y2="277" style="stroke:Black" />
<line x1="183" y1="277" x2="277" y2="317" style="stroke:Black" />
<line x1="277" y1="317" x2="317" y2="223" style="stroke:Black" />
<line x1="317" y1="223" x2="223" y2="183" style="stroke:Black" />
<line x1="223" y1="185" x2="185" y2="277" style="stroke:Black" />
<line x1="185" y1="277" x2="277" y2="315" style="stroke:Black" />
<line x1="277" y1="315" x2="315" y2="223" style="stroke:Black" />
<line x1="315" y1="223" x2="223" y2="185" style="stroke:Black" />
<line x1="223" y1="188" x2="188" y2="277" style="stroke:Black" />
<line x1="188" y1="277" x2="277" y2="312" style="stroke:Black" />
<line x1="277" y1="312" x2="312" y2="223" style="stroke:Black" />
<line x1="312" y1="223" x2="223" y2="188" style="stroke:Black" />
<line x1="223" y1="190" x2="190" y2="277" style="stroke:Black" />
<line x1="190" y1="277" x2="277" y2="310" style="stroke:Black" />
<line x1="277" y1="310" x2="310" y2="223" style="stroke:Black" />
<line x1="310" y1="223" x2="223" y2="190" style="stroke:Black" />
<line x1="223" y1="192" x2="192" y2="277" style="stroke:Black" />
<line x1="192" y1="277" x2="277" y2="308" style="stroke:Black" />
<line x1="277" y1="308" x2="308" y2="223" style="stroke:Black" />
<line x1="308" y1="223" x2="223" y2="192" style="stroke:Black" />
<line x1="223" y1="194" x2="194" y2="277" style="stroke:Black" />
<line x1="194" y1="277" x2="277" y2="306" style="stroke:Black" />
<line x1="277" y1="306" x2="306" y2="223" style="stroke:Black" />
<line x1="306" y1="223" x2="223" y2="194" style="stroke:Black" />
</svg>
